<?xml version="1.0" encoding="UTF-8"?>
<svg id="Layer_1" xmlns="http://www.w3.org/2000/svg" version="1.1" viewBox="0 0 100 32">
  <!-- Generator: Adobe Illustrator 30.0.0, SVG Export Plug-In . SVG Version: 2.1.1 Build 123)  -->
  <defs>
    <style>
      .st0 {
        fill: #4e585f;
      }
    </style>
  </defs>
  <path class="st0" d="M14.3,8.4v2.9c-1.3-2.1-3.3-3.4-5.9-3.4C3,7.9,0,11.8,0,17.1s3.1,9.4,8.5,9.4,4.5-1.3,5.8-3.4v2.9h4.2V8.4h-4.2ZM9.3,23c-3.1,0-4.8-2.8-4.8-5.9s1.7-5.7,4.9-5.7,4.9,1.9,4.9,5.6-2.1,6-4.9,6Z"/>
  <path class="st0" d="M22.1,8.4v17.7h4.5V8.4h-4.5Z"/>
  <path class="st0" d="M34.8,12.7v-4.4h-4.5v17.7h4.5v-10.1c0-2.6,1.8-3.6,3.5-3.6s2,.3,2.6.5v-4.7c-2.9,0-5.3,1.7-6.1,4.7Z"/>
  <path class="st0" d="M42.1,13.8c0,5.5,3.9,9.4,9.4,9.4s9.4-3.9,9.4-9.4-3.8-9.3-9.4-9.3-9.4,3.9-9.4,9.3ZM56.4,13.8c0,3.4-1.9,5.9-4.9,5.9s-4.9-2.5-4.9-5.9,1.9-5.7,4.9-5.7,4.9,2.4,4.9,5.7Z"/>
  <path class="st0" d="M73.4,7.9c-2.6,0-4.8,1.5-5.9,4v-3.5h-4.5v23.6h4.5v-9.1c1.3,2.2,3.7,3.6,6.2,3.6,4.9,0,8.3-3.7,8.3-9.1s-3.5-9.6-8.6-9.6ZM72.6,23.3c-3,0-5.1-2.5-5.1-6s2.1-6.1,5.1-6.1,4.9,2.6,4.9,6.3-2,5.8-4.9,5.8Z"/>
  <path class="st0" d="M83.4,19.9c0,3.2,2.9,6.6,8.7,6.6s7.9-3.3,7.9-5.9c0-4-4.8-4.7-8-5.3-2.2-.4-3.5-.7-3.5-1.9s1.6-2.3,3.2-2.3,3.1,1.5,3.2,3.1h4.5c0-2.6-1.9-6.4-7.8-6.4s-7.6,2.8-7.6,5.8c0,4.3,4.9,4.7,8.1,5.3,1.9.3,3.5.7,3.5,2.1s-1.6,2.2-3.3,2.2-4.4-.9-4.4-3.3h-4.5Z"/>
  <path class="st0" d="M24.4,6.2c-1.8,0-3.2-1.3-3.2-3.1s1.3-3.1,3.2-3.1,3.2,1.4,3.2,3.1-1.4,3.1-3.2,3.1Z"/>
</svg>