<svg width="90" height="82" viewBox="0 0 90 82" fill="none" xmlns="http://www.w3.org/2000/svg">
<path d="M26.9492 66.4531L15.9492 77.4531L4.94922 66.4531H26.9492Z" fill="#65C1C2"/>
<path d="M43.0492 41.4529C40.7492 38.7529 40.8492 37.2529 42.2492 35.8529C43.9492 34.1529 45.7492 34.8529 47.7492 36.7529L43.0492 41.4529ZM66.6492 11.4529C68.3492 9.75288 70.1492 10.4529 72.1492 12.3529L67.4492 17.0529C65.0492 14.3529 65.1492 12.9529 66.6492 11.4529ZM80.8492 16.2529C78.7492 19.4529 74.9492 24.6529 71.0492 20.7529L80.9492 10.8529C80.0492 9.95288 79.4492 9.15288 78.8492 8.65288C73.5492 3.35288 67.5492 3.25288 62.8492 7.95288C59.7492 11.0529 58.8492 14.6529 59.7492 18.0529L56.6492 14.5529C55.8492 14.9529 52.0492 18.3529 54.8492 23.3529L51.3492 20.4529L46.6492 25.1529L53.0492 31.5529C48.1492 27.6529 42.8492 28.0529 38.6492 32.2529C34.1492 36.7529 34.4492 42.2529 37.8492 46.7529L37.1492 46.0529C32.6492 41.5529 27.7492 43.1529 25.3492 45.5529C23.4492 47.4529 22.3492 49.9529 22.8492 51.7529L13.1492 42.0529L7.94922 47.2529L27.1492 66.4529H37.4492L30.5492 59.5529C26.9492 55.8529 26.8492 53.9529 28.6492 52.1529C30.3492 50.4529 32.3492 51.5529 35.8492 54.9529L42.6492 61.7529L47.7492 56.6529L41.2492 50.1529C45.9492 53.6529 51.5492 53.8529 56.5492 48.8529L56.6492 48.7529C59.7492 45.9529 60.6492 43.1529 60.6492 43.1529L56.7492 40.5529C54.6492 43.7529 50.9492 48.9529 47.0492 45.0529L56.9492 35.1529L63.1492 41.3529L68.5492 35.9529L60.8492 28.2529C57.2492 24.6529 59.3492 21.2529 60.8492 19.9529C61.5492 21.4529 62.5492 22.8529 63.8492 24.1529C68.8492 29.1529 75.2492 30.1529 80.9492 24.5529L81.0492 24.4529C84.1492 21.6529 85.0492 18.8529 85.0492 18.8529L80.8492 16.2529Z" fill="white"/>
</svg>
