<svg xmlns="http://www.w3.org/2000/svg" viewBox="0 0 320 220" width="320" height="220" role="img" aria-label="LS keycap — command icon, light">
  <title>LS · Return keycap · Light</title>
  <defs>
    <linearGradient id="rlSide" x1="0" y1="0" x2="0" y2="1">
      <stop offset="0" stop-color="#cbd5e1"></stop>
      <stop offset="1" stop-color="#94a3b8"></stop>
    </linearGradient>
    <linearGradient id="rlTop" x1="0" y1="0" x2="0" y2="1">
      <stop offset="0" stop-color="#f8fafc"></stop>
      <stop offset="1" stop-color="#dfe4ec"></stop>
    </linearGradient>
    <filter id="rlShadow" x="-20%" y="-20%" width="140%" height="160%">
      <feDropShadow dx="0" dy="10" stdDeviation="10" flood-color="#000" flood-opacity="0.28"></feDropShadow>
    </filter>
  </defs>
  <g transform="translate(40 20)" filter="url(#rlShadow)">
    <rect x="0" y="0" width="240" height="170" rx="24" fill="url(#rlSide)"></rect>
    <rect x="10" y="8" width="220" height="140" rx="18" fill="url(#rlTop)" stroke="#b8c2cf" stroke-width="1"></rect>
    <rect x="14" y="132" width="212" height="14" rx="6" fill="#000" opacity=".06"></rect>
    <g transform="translate(22 22)" stroke="#0e7490" stroke-width="1.8" fill="none">
      <rect x="11" y="11" width="10" height="10" rx="0.5"></rect>
      <circle cx="7" cy="7" r="4"></circle>
      <circle cx="25" cy="7" r="4"></circle>
      <circle cx="7" cy="25" r="4"></circle>
      <circle cx="25" cy="25" r="4"></circle>
      <line x1="11" y1="11" x2="9.83" y2="9.83" stroke-linecap="round"></line>
      <line x1="21" y1="11" x2="22.17" y2="9.83" stroke-linecap="round"></line>
      <line x1="11" y1="21" x2="9.83" y2="22.17" stroke-linecap="round"></line>
      <line x1="21" y1="21" x2="22.17" y2="22.17" stroke-linecap="round"></line>
    </g>
    <text x="120" y="96" text-anchor="middle" font-family="&#39;Fira Code&#39;, ui-monospace, Menlo, monospace" font-weight="700" font-size="68" fill="#0e7490" letter-spacing="-1">LS</text>
  </g>
</svg>